<?xml version="1.0" encoding="UTF-8" standalone="no"?>
<!-- Created with Inkscape (http://www.inkscape.org/) -->

<svg
   width="64"
   height="64"
   viewBox="0 0 16.933333 16.933333"
   version="1.1"
   id="svg1"
   xml:space="preserve"
   inkscape:version="1.3 (0e150ed6c4, 2023-07-21)"
   sodipodi:docname="footprints.svg"
   xmlns:inkscape="http://www.inkscape.org/namespaces/inkscape"
   xmlns:sodipodi="http://sodipodi.sourceforge.net/DTD/sodipodi-0.dtd"
   xmlns="http://www.w3.org/2000/svg"
   xmlns:svg="http://www.w3.org/2000/svg"><sodipodi:namedview
     id="namedview1"
     pagecolor="#505050"
     bordercolor="#ffffff"
     borderopacity="1"
     inkscape:showpageshadow="0"
     inkscape:pageopacity="0"
     inkscape:pagecheckerboard="1"
     inkscape:deskcolor="#505050"
     inkscape:document-units="px"
     showguides="true"
     inkscape:zoom="4.0063432"
     inkscape:cx="29.702897"
     inkscape:cy="51.543263"
     inkscape:window-width="1920"
     inkscape:window-height="1017"
     inkscape:window-x="-8"
     inkscape:window-y="1057"
     inkscape:window-maximized="1"
     inkscape:current-layer="layer1" /><defs
     id="defs1"><inkscape:path-effect
       effect="slice"
       start_point="18.856996,0"
       end_point="18.856996,9.2021265"
       center_point="18.856996,4.6010633"
       id="path-effect14"
       is_visible="true"
       lpeversion="1.2"
       lpesatellites=""
       allow_transforms="true" /></defs><g
     inkscape:label="Ebene 1"
     inkscape:groupmode="layer"
     id="layer1"><g
       id="g1"
       inkscape:label="foot1"
       transform="matrix(0.77841745,0,0,0.77841745,0.08616614,5.1589248)"
       style="stroke-width:1.28466"><path
         style="fill:#d9d9d9;stroke-width:0.823467"
         d="m 5.2701195,13.430678 c 0,0 -1.817292,0.387086 -1.1791909,1.39276 0.5053104,0.79639 1.8085381,-0.230782 1.8085381,-0.230782 z"
         id="path5"
         sodipodi:nodetypes="cscc" /><path
         style="fill:#d9d9d9;stroke-width:0.823467"
         d="M 6.3226359,14.361505 C 8.593269,13.849123 8.9833297,12.161359 8.7566646,11.829675 8.0532421,10.80034 6.3685031,12.255616 5.6926526,13.18631"
         id="path6"
         sodipodi:nodetypes="csc" /><path
         style="fill:#d9d9d9;stroke-width:0.823467"
         d="m 1.7541821,12.679293 c 0,0 -1.09932852,1.497953 -1.7541821,0.503105 -0.51857593,-0.787815 0.95322156,-1.554168 0.95322156,-1.554168 z"
         id="path7"
         sodipodi:nodetypes="cscc" /><path
         style="fill:#d9d9d9;stroke-width:0.823467"
         d="M 1.3377801,11.33734 C 2.7375453,9.4775092 4.4365886,9.8150659 4.6459102,10.15796 5.2955082,11.222083 3.2766864,12.160451 2.1505309,12.39441"
         id="path8"
         sodipodi:nodetypes="csc" /></g><g
       id="g2"
       inkscape:label="foot2"
       transform="matrix(0.77841745,0,0,0.77841745,0.08616614,5.1589248)"
       style="stroke-width:1.28466"><path
         style="fill:#d9d9d9;fill-opacity:0.4;stroke-width:0.823467"
         d="m 12.174578,9.2021259 c 0,0 -1.737517,0.658345 -0.954211,1.5555551 0.620297,0.710497 1.752581,-0.502524 1.752581,-0.502524 z"
         id="path1"
         sodipodi:nodetypes="cscc" /><path
         style="fill:#d9d9d9;fill-opacity:0.4;stroke-width:0.823467"
         d="M 13.356144,9.9624753 C 15.522742,9.1114979 15.652199,7.3840912 15.377832,7.0906389 14.52637,6.1799535 13.08195,7.8740097 12.555141,8.8964749"
         id="path2"
         sodipodi:nodetypes="csc" /><path
         style="fill:#d9d9d9;fill-opacity:0.4;stroke-width:0.823467"
         d="m 8.5853405,8.9929206 c 0,0 -0.8593126,1.6474124 -1.6575343,0.7634458 C 6.2956978,9.0563572 7.634174,8.075559 7.634174,8.075559 Z"
         id="path3"
         sodipodi:nodetypes="cscc" /><path
         style="fill:#d9d9d9;fill-opacity:0.4;stroke-width:0.823467"
         d="M 7.9701427,7.7296863 C 9.0715051,5.679001 10.802094,5.7548499 11.06102,6.0620132 11.864558,7.01525 10.011492,8.2490732 8.9338745,8.6511979"
         id="path4"
         sodipodi:nodetypes="csc" /></g><g
       id="g4"
       inkscape:label="foot3"
       transform="matrix(0.77651425,-0.05439994,0.05439994,0.77651425,-0.90296183,6.3181854)"
       style="stroke-width:1.28466"><path
         style="fill:#d9d9d9;fill-opacity:0.4;stroke-width:0.823467"
         d="m 14.583423,3.2792945 c 0,0 -0.28473,1.8361147 -1.324553,1.2553207 -0.823433,-0.4599275 0.129161,-1.8186224 0.129161,-1.8186224 z"
         id="path11"
         sodipodi:nodetypes="cscc" /><path
         style="fill:#d9d9d9;fill-opacity:0.4;stroke-width:0.823467"
         d="M 13.595126,2.2805463 C 13.979572,-0.01521361 15.64285,-0.49915924 15.986705,-0.29142037 17.05381,0.35326725 15.695143,2.1168433 14.80375,2.8437421"
         id="path12"
         sodipodi:nodetypes="csc" /><path
         style="fill:#d9d9d9;fill-opacity:0.4;stroke-width:0.823467"
         d="m 17.103696,3.8838343 c 0,0 -1.555221,1.0166958 -0.597251,1.7244017 0.758612,0.5604294 1.603452,-0.8677632 1.603452,-0.8677632 z"
         id="path13" /><path
         style="fill:#d9d9d9;fill-opacity:0.4;stroke-width:0.823467"
         d="M 18.54256,4.3153731 C 20.543192,3.1255066 20.39184,1.3998805 20.073663,1.1546153 19.086244,0.39347192 17.934523,2.2986526 17.579842,3.3928026"
         id="path9"
         sodipodi:nodetypes="csc" /></g><g
       id="g16"
       inkscape:label="foot4"
       transform="matrix(0.64010942,-0.44293753,0.44293753,0.64010942,1.5022178,7.408524)"
       style="stroke-width:1.28466"><path
         style="fill:#d9d9d9;fill-opacity:0.4;stroke-width:0.823467"
         d="M 17.429829,5.9056906 C 19.430461,4.7158241 19.279109,2.990198 18.960932,2.7449328 17.973513,1.9837895 16.821792,3.8889701 16.467111,4.9831201"
         id="path10"
         sodipodi:nodetypes="csc" /><path
         style="fill:#d9d9d9;fill-opacity:0.4;stroke-width:0.823467"
         d="m 14.583423,3.2792945 c 0,0 -0.28473,1.8361147 -1.324553,1.2553207 -0.823433,-0.4599275 0.129161,-1.8186224 0.129161,-1.8186224 z"
         id="path14"
         sodipodi:nodetypes="cscc" /><path
         style="fill:#d9d9d9;fill-opacity:0.4;stroke-width:0.823467"
         d="M 13.595126,2.2805463 C 13.979572,-0.01521361 15.64285,-0.49915924 15.986705,-0.29142037 17.05381,0.35326725 15.695143,2.1168433 14.80375,2.8437421"
         id="path15"
         sodipodi:nodetypes="csc" /><path
         style="fill:#d9d9d9;fill-opacity:0.4;stroke-width:0.823467"
         d="m 15.990965,5.4741518 c 0,0 -1.555221,1.0166958 -0.597251,1.7244017 0.758612,0.5604294 1.603452,-0.8677632 1.603452,-0.8677632 z"
         id="path16" /></g></g></svg>
